<svg xmlns="http://www.w3.org/2000/svg" xmlns:xlink="http://www.w3.org/1999/xlink" viewBox="0,0,256,256" width="48px" height="48px" fill-rule="nonzero"><defs><linearGradient x1="12.066" y1="0.066" x2="34.891" y2="22.891" gradientUnits="userSpaceOnUse" id="color-1"><stop offset="0.237" stop-color="#e6c45a"></stop><stop offset="0.85" stop-color="#15d86b"></stop></linearGradient><linearGradient x1="12.066" y1="12.066" x2="34.891" y2="34.891" gradientUnits="userSpaceOnUse" id="color-2"><stop offset="0.237" stop-color="#e6c45a"></stop><stop offset="0.85" stop-color="#15d86b"></stop></linearGradient><linearGradient x1="12.066" y1="24.066" x2="34.891" y2="46.891" gradientUnits="userSpaceOnUse" id="color-3"><stop offset="0.237" stop-color="#e6c45a"></stop><stop offset="0.85" stop-color="#15d86b"></stop></linearGradient></defs><g fill="none" fill-rule="nonzero" stroke="none" stroke-width="1" stroke-linecap="butt" stroke-linejoin="miter" stroke-miterlimit="10" stroke-dasharray="" stroke-dashoffset="0" font-family="none" font-weight="none" font-size="none" text-anchor="none" style="mix-blend-mode: normal"><g transform="scale(5.33333,5.33333)"><path d="M43,15h-38c-1.1,0 -2,-0.9 -2,-2v-2c0,-1.1 0.9,-2 2,-2h38c1.1,0 2,0.9 2,2v2c0,1.1 -0.9,2 -2,2z" fill="url(#color-1)"></path><path d="M43,27h-38c-1.1,0 -2,-0.9 -2,-2v-2c0,-1.1 0.9,-2 2,-2h38c1.1,0 2,0.9 2,2v2c0,1.1 -0.9,2 -2,2z" fill="url(#color-2)"></path><path d="M43,39h-38c-1.1,0 -2,-0.9 -2,-2v-2c0,-1.1 0.9,-2 2,-2h38c1.1,0 2,0.9 2,2v2c0,1.1 -0.9,2 -2,2z" fill="url(#color-3)"></path></g></g></svg>